{"title":"1984(1984)MP-4[Dsacubadude]","uid":12341291,"size":1351487988,"categoryP":"video","categoryS":"movies","magnet":"?xt=urn:btih:5ae520b044e60ca2686f26c5cdb0a648e78c3cc1&amp;dn=1984%281984%29MP-4%5BDsacubadude%5D&amp;tr=udp%3A%2F%2Ftracker.openbittorrent.com%3A80&amp;tr=udp%3A%2F%2Fopen.demonii.com%3A1337&amp;tr=udp%3A%2F%2Ftracker.coppersurfer.tk%3A6969&amp;tr=udp%3A%2F%2Fexodus.desync.com%3A6969","seeders":4,"leechers":0,"uploader":"dascuba","files":1,"time":1441303850,"description":"Nineteen Eighty-Four (1984)\nR  |  113 min  |  Drama, Romance, Sci-Fi  |  14 December 1984 (USA)\n7.2 Your rating:   -/10   Ratings: 7.2/10 from 45,246 users   \nReviews: 166 user | 51 critic\nGeorge Orwell's novel of a totalitarian future society in which a man whose daily work is rewriting history tries to rebel by falling in love.\n\nDirector: Michael Radford\nWriters: George Orwell (novel), Michael Radford\nStars: John Hurt, Richard Burton, Suzanna Hamilton\n\nGeneral\nComplete name                            : C:19841984_Title3.mp4\nFormat                                   : MPEG-4\nFormat profile                           : Base Media\nCodec ID                                 : isom\nFile size                                : 1.26 GiB\nDuration                                 : 1h 50mn\nOverall bit rate mode                    : Constant\nOverall bit rate                         : 1 632 Kbps\nMovie name                               : 1984\nGenre                                    : Science_Fiction\nWriting application                      : Lavf54.6.100\n\nVideo\nID                                       : 1\nFormat                                   : MPEG-4 Visual\nFormat settings, BVOP                    : No\nFormat settings, QPel                    : No\nFormat settings, GMC                     : No warppoints\nFormat settings, Matrix                  : Default (H.263)\nCodec ID                                 : 20\nDuration                                 : 1h 50mn\nBit rate mode                            : Constant\nBit rate                                 : 1 499 Kbps\nWidth                                    : 720 pixels\nHeight                                   : 404 pixels\nDisplay aspect ratio                     : 16:9\nFrame rate mode                          : Constant\nFrame rate                               : 29.970 fps\nColor space                              : YUV\nChroma subsampling                       : 4:2:0\nBit depth                                : 8 bits\nScan type                                : Progressive\nCompression mode                         : Lossy\nBits/(Pixel*Frame)                       : 0.172\nStream size                              : 1.16 GiB (92%)\nWriting library                          : Lavc54.23.100\n\nAudio\nID                                       : 2\nFormat                                   : MPEG Audio\nFormat version                           : Version 1\nFormat profile                           : Layer 3\nCodec ID                                 : 6B\nDuration                                 : 1h 50mn\nBit rate mode                            : Constant\nBit rate                                 : 128 Kbps\nChannel(s)                               : 2 channels\nSampling rate                            : 44.1 KHz\nCompression mode                         : Lossy\nStream size                              : 101 MiB (8%)\nWriting library                          : LAME3.99.5","torrent":{"xt":"urn:btih:5ae520b044e60ca2686f26c5cdb0a648e78c3cc1","amp;dn":"1984%281984%29MP-4%5BDsacubadude%5D","amp;tr":["udp%3A%2F%2Ftracker.openbittorrent.com%3A80","udp%3A%2F%2Fopen.demonii.com%3A1337","udp%3A%2F%2Ftracker.coppersurfer.tk%3A6969","udp%3A%2F%2Fexodus.desync.com%3A6969"],"infoHash":"5ae520b044e60ca2686f26c5cdb0a648e78c3cc1","infoHashBuffer":{"type":"Buffer","data":[90,229,32,176,68,230,12,162,104,111,38,197,205,176,166,72,231,140,60,193]},"announce":[],"urlList":[]}}